<mxfile host="app.diagrams.net" agent="Mozilla/5.0 (Windows NT 10.0; Win64; x64) AppleWebKit/537.36 (KHTML, like Gecko) Chrome/139.0.0.0 Safari/537.36" version="28.0.9">
  <diagram name="Page-1" id="QyIksBpczuKU_oVT00PR">
    <mxGraphModel dx="1722" dy="431" grid="1" gridSize="10" guides="1" tooltips="1" connect="1" arrows="1" fold="1" page="1" pageScale="1" pageWidth="850" pageHeight="1100" math="0" shadow="0">
      <root>
        <mxCell id="0" />
        <mxCell id="1" parent="0" />
        <mxCell id="W8asdlkaLdwOcrkHtq_W-3" style="edgeStyle=orthogonalEdgeStyle;rounded=0;orthogonalLoop=1;jettySize=auto;html=1;entryX=0;entryY=0.5;entryDx=0;entryDy=0;" edge="1" parent="1" source="W8asdlkaLdwOcrkHtq_W-1" target="W8asdlkaLdwOcrkHtq_W-2">
          <mxGeometry relative="1" as="geometry" />
        </mxCell>
        <mxCell id="W8asdlkaLdwOcrkHtq_W-1" value="&lt;b&gt;Jenkins&lt;/b&gt;" style="rounded=0;whiteSpace=wrap;html=1;fillColor=#dae8fc;gradientColor=#7ea6e0;strokeColor=#6c8ebf;" vertex="1" parent="1">
          <mxGeometry x="130" y="130" width="120" height="60" as="geometry" />
        </mxCell>
        <mxCell id="W8asdlkaLdwOcrkHtq_W-2" value="&lt;b&gt;EKS&lt;/b&gt;" style="rounded=1;whiteSpace=wrap;html=1;fillColor=#d5e8d4;gradientColor=#97d077;strokeColor=#82b366;" vertex="1" parent="1">
          <mxGeometry x="410" y="35" width="280" height="250" as="geometry" />
        </mxCell>
        <mxCell id="W8asdlkaLdwOcrkHtq_W-4" value="&lt;b&gt;kubectl&lt;/b&gt;&lt;div&gt;&lt;b&gt;eks authentication&lt;/b&gt;&lt;/div&gt;" style="text;html=1;align=center;verticalAlign=middle;resizable=0;points=[];autosize=1;strokeColor=none;fillColor=none;" vertex="1" parent="1">
          <mxGeometry x="120" y="200" width="130" height="40" as="geometry" />
        </mxCell>
        <mxCell id="W8asdlkaLdwOcrkHtq_W-5" value="&lt;b&gt;push manifest&lt;/b&gt;&lt;div&gt;&lt;b&gt;helm/UYAML&lt;/b&gt;&lt;/div&gt;" style="text;html=1;align=center;verticalAlign=middle;resizable=0;points=[];autosize=1;strokeColor=none;fillColor=none;" vertex="1" parent="1">
          <mxGeometry x="280" y="170" width="100" height="40" as="geometry" />
        </mxCell>
        <mxCell id="W8asdlkaLdwOcrkHtq_W-6" value="" style="rounded=1;whiteSpace=wrap;html=1;fillColor=#d5e8d4;gradientColor=#97d077;strokeColor=#82b366;" vertex="1" parent="1">
          <mxGeometry x="410" y="370" width="380" height="170" as="geometry" />
        </mxCell>
        <mxCell id="W8asdlkaLdwOcrkHtq_W-25" style="edgeStyle=orthogonalEdgeStyle;rounded=0;orthogonalLoop=1;jettySize=auto;html=1;entryX=0.5;entryY=0;entryDx=0;entryDy=0;" edge="1" parent="1" source="W8asdlkaLdwOcrkHtq_W-7" target="W8asdlkaLdwOcrkHtq_W-23">
          <mxGeometry relative="1" as="geometry" />
        </mxCell>
        <mxCell id="W8asdlkaLdwOcrkHtq_W-7" value="" style="shape=image;verticalLabelPosition=bottom;labelBackgroundColor=default;verticalAlign=top;aspect=fixed;imageAspect=0;image=data:image/png,iVBORw0KGgoAAAANSUhEUgAAAJUAAACuCAYAAAA/H08hAAAAAXNSR0IArs4c6QAAAARnQU1BAACxjwv8YQUAAAAJcEhZcwAADsMAAA7DAcdvqGQAAEIDSURBVHhe7b15nB1Vmf//PrXcfel9y9IJSUgCIUT2kV0BQUUQBAwgjjA/XGf4yejAOAgu853R0YEfIv5GUcFhNAKCgowag7Lve0L2NEm6k97X23ev5Xz/qHs7t+/SfW/SSboT3r7KNFWnqm5Vfep5nvOcpYRt25JDCAlICbaUJFNpYmmV/qjJYMImnpIgwLSyJQVCgKYKVAUsG1QBVuaOmJZESpA4/wrApQk0BZpCKrV+Fb/LxuN2oQjnWCLv9xyOiENFVLYEy5bETclg1KI7YjKasDEsEAJ0VeB1C8JB1Xn4OoRdOgJHNMUQCGwJI3EDW8JozCKVkpg2GJYEKRFCUB1QaQqq1ARUfJpAUxyBHa7MeFFZNpi2ZCRus30wzWDUxpaORfF5FYJ+hWqfhqaNf9Bm1hzlIBAlBaapzs5SgmHZRA0bMyUZGbWIJu0xK1cbUJhX4yLsU9AUxwIebsxYUVkZa9E7avJun0HckOiawOdRCPoUwn4Vl6Zg245MJhJMpQhAUQS2LVEUQdqUjMTMPQKzIOgRzK/TaQhq6Bn3ergw40RlS0ibjpi29zticuuC2rBGVSAjJOnEQAcSIUARgnjSpnvIIJ60MUxJwKUwr06jIajh0gTKYeAWZ4yoJI6YhmMWbf0GI0kbty6oCWnUhhz3Ztvli2kqLVcuQoAQgrRhMxQ1GRi2SJuSsFdhYb2LKp+CS3XKHKrMCFGZtmQ0Jdnen6Y3YqGpgroqjZqQhqo4cc50I1dcg6MmfUMmUkJzSDC/VsPn0dEOUbM17UWVMiU9ESduSpiSoE+hqUbH51GRB8HNVYqSyTPEEhbdAwbRpE3QrdBaq9MQVHFrh56wpq2opJQkDEnbgEHnkImuCmprVar9GqoQJcWkClCEY70s6bjNych3hfn/TcbylDpnOQjh1DgHIyZDEQtbQlNY5Yg6F15dHFL5rWkpKsuGaMJga5/BQFwS8Ko01Gh4XZNXoUK6IKAK0rYkYkoMe7ywLJmRS5mCI1PbU1UnZtOEUiC4UmSlki2fTY5GkzbdAwaxhE1DSGVBg4ugSzlkaojTTlSWDQNRi619aWJpSV2V6gTiamnrlEUTglqXQM88nJglGUo7ycrsg42ZFhIn414JihAogE9TYUwggkz6qiKEgETKpmfQIJqwqfIqHFHnosavHhLCmlaiMiwnG97W78RPLXUuwn51rJlkMryqIKwLsmHKUNqmO2mS3g+XmCsyRYBaYW0u6w77hk36hk3CHoUF9S5q/cpYonWmMm1EZdnQHTFp601jSmiudxH0TvzaqgK0jMVIS4lhS0KZtjkB7I6bJPfz5QkcQe2NuIQAw5T0jZj0j5j4NcHCRheNQadWO1OZFqLKurxtfWmSlqS5TifoddxMKVwK+FSBV3VcUFfSZihtYtoShBPNVOri9gWRcb9eTUURlblFw5YMRk16B0zCboVFDTPbFR50UUkpGYhabOk1HEHV6gR9pQUlhMAlIKwLsnG7JWFHzCBm2mWG0PsPAWiKwKOqqGWKSwgwpaQ/skdYixt0agLqjEySHvR3YTRhsWMgTcKUNNXqhCYQlCrAq0KVa4+gUrYTO6Wscutk+xeZsTxRwyRmZiznJEjpWLm6kEZ9tcZI0mZ7f5rRpJVfdEZwUC1VPC3Z1pemd9SisVanNqiVDMrz3Z0lIW7aDBmSEcOq2NVJsed9EtJ2anPp1J7tLjd2zjsnpD32dyVk461yrFZujDU4YtIc1lhYr+MrI5UynThookoZku2DBrtHTKoCKjUhpzW/GG4FQrqCO8c6jRo2fUmTdAVicoQkUNNx1EQcb2IYER9CiY2gYKHGIiBtkBpWoArT50cG60l4wpheP7bLC8iKBSYAXVHwagraJO4sK6zuQYNIzKK1RmderT6jMu8HRVS2hN0jBm09Bl6fQmONjl4iD5UvqJhpM5h2rJNVbIciSKEgpI0eGcIz0I63tw1f325CI12IwV0QGwTbcARlm2C6QNUhEMSuP4JIuJl4/RwSLYtI1M3F8gfGjlkulQorlrTp6jewTcmRzS6aQ9qM6eFwUEQ1krDZ3JsmYTg1Pb9HKUtQUdOmO2kRryAgl0LBNTJAYPc6Qm1vEWhfhzbc4QhIZLqA5j5kmUm1m5l/LcNZr6ik6+cTWfQ+YvOWMTr7GEx/aL8KayBi0tVvUONXObLRRdgzM9zgARdV2pS09RvsHjZprNWpCapFBaVlanjejEusVFBSKKjpBIFdG6ne8Cyhrc+jxPpBcUNOPFUSO9N4OKYZCZYJmo0VbmFoyamMLDmNWMsibJenbHGVK6ysG+wZMhiKWMyv05lfq+OaAW7wgIuqN2KxuSeNyy1oqtWLNr9oAnyawJ8JyvdGUO6Rfqo2Pk3t22tw9beB0MoTUy5ZYcEecQlA2kjFIFV/FAMrzmXomLMwA+H9IqxYyqaz10AFlja5qAuWrh1PFw6oqJKGZGtvmoG4zax6HV8RtycEBFRBQHMElbQlXQmLUcNps5sMKRR8fR3Uv/oo4fVrUIx05WLKxZZgZf4lk4SxM8owTUxfkKETzqf/hItIVTdWJCyPqoy1JZZCCOgfMekZNGgKaSyo1/FP89rgAft1UkoGowYDUYuQX830h8ovBR5F4M0R1EDKLjup6QiqnabnfkV47R9zBCXzlgpQxPh9ci2WqqGlotS8+luaXliFe6h7XKpiImQmn2WU8U6H/SoBr0rXiMlgzEQWu3HTiPLuwBSQSNv0R01QBUF/9kGPRxMCn+pkzE0Jw2mboXR5tTwpVDwDXTQ+/2sCW55Fse09gtLcEKyH+mbwV40PzMuhRKrDQUVNW4Te/jONLzyAe7i/bGGZUhI3rQmFJSXomnPPhIChqEkyXZ41PFiUd/X7iG3bDMctBuMQ9Cn43MXdnld1kpzg5KEqEZSSitHwysMEtjyHYll7XJ7uhqZZ0DwHmufCrFaobqpMWEJMfKcUFTVtEl67hvrXHkYx9iRRJyMrrIky71JC0Kvi96r0xyTDCWtaW6uJbtWUkTYlg3ELS4DPV/yU49yeJRlKWxV1Walbu4bQpqdRTSMnhpKOhaquA6/uuCy/DxpaQNPzjjABIusGJ0JFTaYIv7WG2vVPIsXEsVIuVqaHxUS4dIWQX8WU0D/NrVXxJzzFjKZgMCbxeRR8rkIrpWWtVOa5jZo28SKDPYshhUqgfSM1b/4RLRkbH5RLCb5QbnGwbXCroGnj109GvqZyn+nY3yr6aITqN/6MZ2B32cLKxlcTWytJ0KvgdSv0xyCWzi8xfdjvojItx1ynbQj5VPQi/Tk8qsCdsQSjps1w2i7L7QEoRoLaN/8X13BXsTANjERxV2dV2Fhb7Bj5qAJQcHdvp+6Nxyq6uaa0J7TM2djK61ZImZJIyp5QhAeTSq57r0gYktGEjdslMpnz8TdCE04cpWaC85G0TcIqz7RLoRLasQHfrnUoZqrwwQsBI73IkZHxoxb6usHMZMorYbK7JZ1zqqkoga2vE+jaVqG1sid1g16PgqYJeqMWsdTEZQ8Wk92mfSaRtommbHxuBV0rnujMJgCTliSZGaZeHpLwpqfQo0MlLkVAMobo6YCuXdC9G3bvgN4uxw1WgijDWo39cBXX8CDhd57MXTkplpzMBYLPreBxCSJxi6RRuuzBpNiTmDIMSxJJSczMG1YMTdnTJSRh2SQriKV8fbtxd21GMZMTPHBHWAz0OBaqv3fvrBRF4qpSCIGSjuDuWIt7sDd/a0kkkJ7EWrk0gc+tYEuIpe2iE40cbIo/6SkiaUgiccuZOKNIGkHPcX1JG2KmLDuWkkIhvHMtrkS0jIy5cCyTXWEctS9I0COD+CtwgZRhrQDcbscFjsQtkubEZQ8Gkz2NfSJtSmJpG7fuuL58XKrAkwnQY6aTOa8Ez661qMnRMkR1gBGAoqEnU/j7tlXkAuUkpaUEv1vBpQkiSZv0oS4qS8JIymbnoEH7kEkkZWPY4NJF0b7WSib9Y0pImOXX+AC01CjK8C6EmcjfdPDJXIaSjqD1tqGUWfHIMlnA7tIU3LoYmxJgW1+avtGJE6gHkikVVTRps6krxbbeNG29aXb2GyDA5RLjan0Cga7k9jOXpCoYMQygJmKIvY2N9haReQvKRRoo8QGUxGj+lgmxpMSc6AUTzouKgK4Ri50DJhu7nYb66aCrKRVVyrDpH7VIGU4qIZqyESpoebU+iUTNeT5JS5KswPVJoeKNDqBZ1lRfwuRM9LBzkYBUUAwTPTZSUVwlx/6vNB63gq461iptSkYSFqNJG2saqGqKn4hw/peZM0BRBG5Vwa0VnkZTQM+4RNMuP0AnE6SryTiKnZnQk0zXFFs6vtTI/D3VN1iWeNhSgKWCnXOdGasmJAjTKruROctEtUApnRn8ZM6kIQIqmp9rf1LZlZZBbugkAFVxXF0+uZ5EZifNqABpS6QBpATEFIipEFWdf+M5f48qkFTGN6vsLdkfbalgqpDUnCWlQlqBlDJ+namCXWFzUAanC1fxuyIloDjTJRcvcXCZclHloirg0grzO0LsEZ+RMSzlIoWKFhsitOVN9MEYJFQnH5EwIBaHeMxZYjFImmAASQHRjLgqOFcBEud8aQUMxXnyaQuSKUhEIRGHlAGGDaYjMNdQjHDnVlTsilygQ+HLmMWrqbhVpaIQ70AxpT0/eyMWr7cnx/5bU6GhWqO+2kXuaRQBQV0QVAVpG7oTJkPG5DkkKVT8PTupX7OK4NY3UWOjYKSQVXUkZi9Aa5mLEgyDokIqDtu3onZsQgwPg+51EmKqBL9d+etk4VhEUziDJswkMlyF2bQAI1yNrzqMZaRJd3Xh6dyBGOpzekLoboyaBoZPPJvuUz6K5Qsj5OTXKjLC8RZpK83S0ZNmOOocy7IlRza5mFdz8Pux72dRCRpqNOqr9JKiilnQnTSJTiIqKVSCOzfSsGYV/m1rUeKjmC2zUE/5IGLx8VhVtQivH6Fqjhm0bYhFMIcHEVvXoj3xKMQijuA0CX5rks53OVg4ls4EpIlsaMZ6/4eQi45BDVYhXW5UXUdKGzuRQI2OwO7tyNeeQmx4CxQVKxBm8Liz6D53ZdnC8qkq3iLxaJZdvY6oZGYO+cNDVJpwLFWeqFyKMzmZRxFETEl3wiIxQa8BKVTcA120/P6nBDe+ipKMYZ30AcRZH0WZuxB8QVCK33zbthHxKEZnOzx+L/rGtQihggqE7Ik8jIMlnfjMBCkNrBWno110NbKmAXzBovk3pIR0Ega64fVnYPWDEItjBaoYPPk8us+7Etvlyd+rgIlEpQhHVIOj009UxX/xfkYURAsT61pLRml46hGCW95yBHX6hxEXXo2y+FgIhEsKCkBRFEQghL7oaPRP/SPm0uXOgFELJ8aaCEmOoExip30UdeXnYc5ChD9UXFBkgka3F5rnYZ91McbHrkWGa1Djo1S//Qz1rz6Rv0fFiGwVexoyyV09+EihUrPpVUJbXkeJDsIJp6GccxFKyzxQy69ZCSEQ9S1on/4KNDQ57jEpID2BoI3MSBpszBWn4f343yJqG/NLlUYIlGAY5f3nYn3oMnBpaEP9BNa/jK93114E7jODaS8qLRnFt+4l9P5OZHUD8uRzELMWgFr4QIaGhnjrrbdYu3YtyeQeN5yLqG2GT34RhO24qXjhcSBjpeIqIJC+IPbl16OGq/NLAZCIRXnn9VfZsG6dUwPMQw2EEMefjnXi2WCk8O3eSmjDi8hSlm6GM61FJYWKv3MH7v4uSCexjjsNecRRRfuXv/CXNXzqypV88pOf5IorruDLn/8sPV1d+cUclh6PcdSxjqhsUTxJajijk6WQxM78MK765vwSWJbFm6++yodOPY3LrrqaSy+/nKs/8xnat27OL4pa14Sy7CRkdT3K6DDujm3oo4P5xcrGmiaJzmLsX1FJ50tT+WST3mTCD6XEGyuFwL9jPe6hHghVoS49FqW6Lr8YXV1dfPf/+wHPvvAinZ2ddHZ28pvHHueRVf/D6MhIfnHQXXDiB8FKOyapWKLMcCyY0HV8Z3y4aPzU09XJHd/7Lm9t3UpnVze7d+/mf1f/mVu//X8wjLx2SUVFzl2IvWQFmAbuwX58veX3Y89luk+QvV9FZdlgmPlrx7d2THSDVGmhD/WhxKPYNc0QrHVSAnlseftNOtp3ZpovFIQQxJNJfvuLHxMZGsgvDoB29Il7UvpmXmwmgbSTj7LrZ6HUFImjbItIVyfPrfkLViZmUxQFy7LY0d5OR0dH/h4o1XWocxeCEOixATz9O/fKBUrk2GfjiryzB539KqpS2HJPb15dOEsxlEQMJTYCRopUXSNmIJhfBABXKIyi6QXWRGua74z7K4KoqoVwqKAeOoYEhILVNLd47VJREV4fanZKmtxNioKuF7poXB4I14DuRYuPog/355eoCCsTFk43Cu/IFJLNn0yUCnMpzpRBxRBZ92mbePxedLcrvwgAy49dwdxwGAwDI7NIKbnqE5+guiqcX9xBKOAJOJpKFxeWlBbJquLBOUB9YyMrr/4UUsqx81YFA5z9/lNoaWnJL+74epcLvB4w4pCO5JcYY6KwAMiMbC5vOoADTYnHOTXY0nmbJnJxAufmTXD/QFFJJgyMYr4U8Pv9/OdPf8pNN3yJ5a3NnH7cCn74gx/wkU9cjtfnzy++h3TCsUh68UcjhIo7Gs1fPUZ1XR2fu+FGvvblf2DJkiUcc8wxfOWmm7nhqzehFqmdAplJ1VKgekCb4LchSubvFEU402vJ6fmpt/0qKjJ9rOJpCyXv6g1bMtkgW9vnR3qDTtfcwV7UWOkHPG/+fP7xtm+x5uU3efiPq/nUpz9NuKqqwCWOER2B4WHnwZUogrTR+jrz144hhELz7Dl89evf4Omnn+aJJ57gc5/7HKFwCetopGFkBOIJpOpC6t78EmN4Mt2GSr2Qicz3BKcjUyoqiRzXSUwRzpjNRKpQPU6w7pT16greIm+2KTTSTfXIqhDaQCdKvEhNLoMQArfHQyAYxB8IoOuFMdY4dm1zzCiAlmcBBeCSIFREXxepVOm5EcbOGwgQCARwuYq7aAA7HsUc7AFpkQ7XkGycm18kB6dvWqlOQWlDYk3DkTRMtah0VeB1CafTnS0znfUkxaZsStuQyjT3ucSeIe/5JBoXk/bXw1A/dLwL8cq65pbCfHo1qC5HQcVqCpoJUiIiAyjrX8nfund074ItG0DRSfurSdTPyS8xjlKCkrbzsmZjVtOW2BJ8qoWmFN/nQDKloqrxq5zY6uGIWo2jZ7lYMdeNXxfEknZBsO5YKge3IvCohXGVYptE5ywkWV0Hiob1+ovI3TvHF9obdrehvf7knppfscDErWQ6fQnUPz2Uv7VyjDRKxza0trXgdpFumUOyYRaKXRgnCjFxrBRNWcRTFjU+hcWNLhbV6xw3101D2INSrKZ6gJnyXxDyqhw9y8P8WhdVHpWgTyNl2MSKuEDDlqQyYvOoCu4iNyTtryJ11EnYdY2o297GfukJ7AoGaBYgJfYvfuB0ARYCwoUPdQy3BBTEu+uJrP5N/taKkBvfRP7xARAqyYZWRo8+DVsp3nbpURQ8JfpRKYogmbJJGZKQT2Vurc6SZjezqw9+74QsxX/5FOHRBVVeBcuCVNouCNaTOS4wrAtCRW6KYpv0HXs6o7OPBJcH9a+Porz0hNM3qlJsi9EHf4zYsdFJKbhl6T5VAvA5MxgLoRN89OcYG9+sPDEkJcb2TST++ACivxP8fmJL38fIwmOKWin22M+SpA2JAPyahSYKX9aDzX4VFUDAJQi4BNFEoQsESNuSrBHzaWrRNzTtr6L7gr8lOn+ZY10eugdz9UPYw/3lzYlg25BOYfz8Pwms/jVCZlybb5J9BRAyHWEZFtpd/4L52lPOsPnJxCWd2YyNdzdiPPgTfBtfB93DyILldJ35iZJWynF9pWU1mjAZTVjoKng9rtKpi4OIetttt30jf+XUIoilJSNJC09mZG0uNoyNARSZCc+yLjGLkDbpUA12QzOe7h3oI0MoG16Hnp2IqrpMJ73scTNDTKTtTFGdTmNsehvlx99AXf8aQnVnup46U0VOihCg2GCpCMtGvPY05uAAauvCIg3b0hlabxnYQ/2YTz6G9sD/j2v3dqTmIj7/KHo/ei2J+jklrZRXdWYtLoaiCCIxi5FRi8agRmNILbif04Ep7flZio4hg41daRprdOqrx/cCBQhqglDmO8IjhqQnaRadTshWNMI7N9L4ux/j69iKMNNg21jzj0JZcRxi/lKoaYJEDGN0BHXXZnjjZZSdW5wpr7XMRPyhMgWVRQIpCQnNEWw6ifR4sY85BXXZsdByBASqkKkk1u421HffgddfQgz1gu5B6i5GFx5L14V/R7yptaSghBD41NLxlAR296WJRC2Wz3LTFC5u7Q42B0RUI3GLTd0pTEVhToOroGaT7bMeUB1hdSZM+lPFp7i2FQ09HmHWC78n/PzjKKMjTuo+nYD8ft+qnlk05yS6zMRJ44uVjSkzw7Ey1tA0nEnVchHKnvMqAquqhpHTPkbnyRdgeIMlBUXGSpWaAltRBNGExa7eNEEdjmxyE57km4gHi+KvxBQTcEOdXxCNWwxHzQJR2dIJ2LMZdn+J2IpM4G74QnSecA6JlhB4jcwntgLgDzvTMfpCzt8eH+g6uIGw5Yyi2VtBkZlMy2eDz3SO6XKNP6cvBN4AuD3Ob/ILokuWsPOsy7Hc3gkF5Xx4svg1A0gpiUQtkimbuoAgUDrHetApfRVTiKqqBHwuXJogGrcxi4xxSNuSdGZQaVgXBLXCvFUWxTYRmo4UFrgtZwBDyHTipIAJ/szfIROqpkBMuQjALZxjhi3nPP6cJZA5b8iCgA6BKmck9SS4FYG7hEtWFEE0aROJW3hdCoFpGqBnOSCiAgh7FBqCGqNxi+GYWVDDsSUkTTk272WNWyWsqSW14Awjz/n5inDiJF3ZM+lVvkmcakRmnk9X5pwuxTl/5rxSqFiap2RNL4tjpUr/VmlLRqMWyZSkKawRmuTb0gebA/brPLqgPqDi1gWxRPEZ4FI2JC2nRuhWBFUutWhCFMDyBZEu/4G8hMpRdfAU7wOWRckE5+4S7h4gkrSIJCz8bqjzK9P+23+lr2Q/UBNQmVWlE41bDEWLxxcxSxK1JFYmL1nCI2AJDVvzTL8Jz7JkP/3mKy0qIZzs+USCkrYkMmphGpJ5NSo1vhI3ZBpR+mr2A5qABr9ClUdhMGISLfKNYFtC1JAMG5LBtEViosqpxw+KltOKOL0wpSBZ/N0BwJ35klYpFCGIJ23icZsan0K1X5/WsVSW0le0nwj7VJqrdWwLIlGr6HxKtoSEJVGEgldVCuKvMXR30T7rEyFVffJs+FQhBFIrXk1ThJjws2wAacOmP2Jh2tBSrROapimEfA64qADq/CrNYY1IzB6bYKIUHrW0sGxX0BFJudgm9oITkR6f0wOzXKTtCLi6yfm7XDQVPIUd8dQy4ijTcj4gORKzmFWtUeufGYLiYInKowtmhVXCbsFQxCSWsiesqGV7MBToyhtyEpvlGh4zjnnmZVgnXQyh2sxHuO0S7lM6yVRpQaAaufwsjFMvA6v4INUCJNiKiuEaLypVCLyTCApgOGoxHLUIexUaguq0D85zmfjK9iNhn8qsGh0kDI1YpIqNvcvBpyl4FHV8b05fdjRMmdZD1Xl3/Xo49yr46Jdg7lFOIG1bzoe5bWvP3zJz/JYFyA98Guujn2dXR2cF7lYihYqt7RnNU46gJBBJWAxGTHRVcESdTl2g3HNOD0pf3QGgPqQxp1YnFrfoGzaKphly8WkKvqwrFJBAx6zkEoTKxuf+RCw6ijz2DPjMv8HpK2HeMdj1c5x2w5om7Pq52AuPhzOuhKu+Ae//CNHICOuf+zOI4jFSIRJbERhun9NCpDhuvJSgRGaJpS16hgxMUzKvXqc+NHGOazpyQNr+JiJpSLYPGHQNm1SHVGrCOtokE96lLJskCjXrnqbuLz9GH+2DMkf6rnrzXfzXfZsLPv6JPWPz4lHMvi600QEQYAbrkM2tY9tTqRSrH3kQ+/5vcfHy+eMPWArbINq8iI5Lb0Opa8EvJroiJ71gGJLuQYORqEVrrc78On1Gub0sxV+bA4hHF8yp1qgLqAxGLAYjBqbtdEIrhVtVqNJAcXuRFVax39fawvf+47u89NxzWKlMfOQLoLUugmWnwNGnoM1dOCYoIxHn2aee4s47bueU+bPGH2wSFEXBp+uTCgoglXYEFYlZNIVUmsMzK47K5aCLCiDgVmit0ajxKQyOmAxGzKLtg7koQqBoqvOKT/7MxlhS50MO9HDrP9/MI79exc5tW5FG4cfz7HSKHVs289ivfsmt//LPWEN9NFX78otNgERXVfy+wtpfFpGxUGlD0jtkEIlaNARU5tXp07YHQjkcdPeXy0jc4t1+g8G4TVVIpSaoFf38CJlZj8WWt6n+3+/jHuzMJEHLQNP46Zu93PTsZhKmxd9d9UlOP/0MgsEAdaEglpQMjkaJjER45pmnefjXDyHdOv/6wWX8PwsnGvyZh50m3bqMkU99j1SRofeOoAQpw6ZnMCOooMr8+pktKKabqMgIa8eAwUDcJuBTqQqpeF0KSl7FXxFg7d5B/cPfwtO/E5Ty81XdUYNLH9/E230Rx1QA9arNwtnNGLbNjs4e+i3HiAskK5pr+O3Hj6FOqSC3ZVukFhzP0Ke+g5n3XmTrq4m0zcCQyWjcojGgMu8QEBTTxf3lEvapLGhw0RTSiEQtOgcMRpMWduZhZLEliGDI6S9VIU1hL18+oZVwwI+iKGiaRp+l8OLOHl7r6KPfctYpikLApfOl982hrtLTCIHUdWRO42XW3RmWZGjUZFdPmnjCZna1dsgIiukoKjIx1hF1OnNqNGxD0jdgMjRqYljOANUsqpqXtyoXy+QTC0NcuXwuPo8H27bHxJUVk21Z+KTNZUubuWKe3+nvXjYy00MhMLZG4HyhIWHYDIyYdPUbCAnz6nUW1LsOGUExXUVFplbYWqOzuMmFT4O+QZPeISf7nkV1e50prveSm1fU8fnj5rCiqRopJbZtY9s2fl3h5OYqvrhiNt94f+te9cuSqo7tdnooCCGwpCSScCzvQMQk4FY4sslFa+3MTBtMxLSLqYoxErfoGDbpjVgomqAmqBLyq7h1hZqf/b+4d6wrP1AvwpruNE9s76VvOIoAFjWEOHVWLafPqtRCZZHY7iDx4z/KyHl/SyxlE41ZjMQsbBPqQyotYSeNcigyI0RFJknaGzXpGjKJpp0g3u9Tmf/Azfjb3973flWqRu9wDICGYGFtrSKkjeWrYuT4S9l10qUMRkzSaUmVV6GpSqdxhrXlVco+PokDh0cXzK3WWdLkYla1TjJl09lnkJLavgsKJ85qCLr3XVDgWCoUItJH94ATO82t1Vnc6GJutXZIC4qZJKos2drh4iY3s6o1dLfHuYzpYnBlNvchcOkKs6odMS1scBH2HZruLp8ZJyoy84Q2BVWOrAG/dAaUQibPMPZQDwJ2dmZXgZpOUJPo5MhGJz1yiBunccxIUWXRd29DGehxJmvKMjZP6AFUlp1/PoGSiOF+dwPqYHfO+sODmSsqIw0vroHB3tJV/uzD3h8CK3bs7J/ZLGdPF7zx3J7thwkzVlTyzefg7VcgkXAeYHYZVyjn72IiqJTJjpH7O1QVEY+gvPEMvLsuv+QhzYxJKQAQG8EeGYRtGxBPPo7o3AFuEzyZxkByA+VMfFXCiBWQ3b+c21HsuJmOg2PYAqKA4oKFR2GfeDYsXIZS0+B8ceIQZvqKykhDIgZD3dg9XYj+bkR3O3J4ELp3IYYHnYfrluCThTZX4nT9tazJI/diIsknt0z2b4GTdLWtwv1NYFQ44lIEsqoWmucgahuQtU3I+iaU2nqobsD2h0HTp8XUilPB9BSVkYbeDujbhd2xHfvdrai9HYiBvj0TySoqKCp2SwtCjiCsvBmEVRXbU4USH3KElXWN2eFZ2asWJURVbN0YAoQEVcP2hFHiA+MLSxspPEg7jNK72zmYnZn51eNDVtdjz5qP1TIHZs1Dn7sI2TAbxTUVObKDz/QUlWXC6DDEI8hYDGKjiHTS+eB2MgGpGCSiWME6bLcL7eUHEZH+8V2KdRdmzTzUge0IM+fjQ9mrHbvqzB+5ohOZqYLyY7Qs2dWaC1kzG9GzbXwC1jaQDXORZ1+H2L0dGR9F8frB7XeGevn8SK8Py+MHnw8tXA2Bqoq+XzidmZ6iKoVlOjkpIw1GCtvjh4EuxC9vQ/Tt2tP+JyW4XNizj0FpXwuWUdrs5Fqs7H+Xsl75uP3IlsWItpfH9+ey03DECrj+dmQqgUynUFwu0FzOd24OEfGUYmY5cVVzglxfAMK1KG6P86GjgpSC0/VEBKv3CGRsU947JPLEk/07/5D5SCeOE6GavMnWpCMwtx8UBeH1o4RrnHmrdNchLyhmnKiK4fGD5i5QgXT7wOUd75YyMY0zV2cFBloAvnCeIJ0PpFmBEh9Emor2yBnKzL9yLTP9Yp5IpHA5lmFcXCSRvqAjtkoQCoTrC86BEEjNU9iV2eXNlD88mfmiggIrhTQRgRqE5irYJHzV4PIV7jMRQgFfFci8r40KBZm1lDlWTCKwyxyHeCgy80Xl9jgPNdciSTsz96Yvsz7zwKUBnhCWVtlQK6SFDNY6MxznrBdCogWDmWRm9hzSyab7a3LKHl7MfFGpWqbWN97yiEDYedi5cZC0kW7fXny3WCJ8AfAGx+e5FAURrM3EdDllUcBdoYs9hJj5ogJnko3cKYWkBJ9T+yrAE0D1+UvnoIohMhUCkRe7CeFYSl9VbmnnvId4U8xEFLnrMxBNzxOQxNK8mclmc5EIjweh7UW1XtOLBt8SgaXoIHP6sqsK4hDJju8N+Xd9ZhJqcJptshOS2Ra2J1BoqSSY/prKrBRZ4yTy3JyD0F2Iqvpxk6FJVcPylPg66WHAoSEq3Z0XUkm0gB9L9+VZK4kMVO1VDsnUvUh/tTN3VS5CQeQOa5fOd3EqnTjkUKLyuzsNkd5QQa5IBGoKP0hkWWj+YOWWSgikomVmGs6bYE1VnSB+LNaSCEVBdRdatcOFQ0JUwuPJuLpMV2JFA62wRggSUVWzV5ZKCOGcZwyJlBZp3Yul+8bF72h6RmiHJ5Xf3emIy5sTP0lQPRi6B8XrQ+R/BEnRnBxWvhubEIHq9ztJ0/ymGlVD8XrHT0wrRGE8dxhxSFy5pXrGx05CQXO5UcZyWBnsNPgDmKlU4QSyVgJ51JmZ3FaeixMgVB3CteNXKhpCURD+XPeXqSl6QzllDy8OCVGpXi9CZIdHZdyPojjeL2uppA26F4SG6vEWukbbQsxZDI2Lxq+XOF1nhOL0ecpaJCGcrsKIIu70PUs188nr+iJzO7xJuceKqF4QokhXmUxfrdYlMH8Z2Hm9SJGOBkXOZKTZTnyqBoHq8RZR1cBbwQRphxgzX1T9XfDMgxCNOLkq20BUtYDmwkAZFz/jq3JqcrojrnFYSVJN82HWQjDzRZURVCinm4sQoHlAVZ31nlBGaAqydxfW6v9x+tgfhsxMUSVi8M5L8Itvwl3Xw4bnHEsjASMKx54OvhC6z4/Imfdc+gIZMeUJStpQNRuX1wdzl5SeQaaYmxMCArXIhSeDGQWhIhJR1Kfugzv+DvnID7E2vw2JeN6+hy75d2l6kozDzk3IJx6Au/4evn0h3PsPsG41xIacT84aMUj2w+lXw1GngtuLEY8jx7LsaYTXsVQFWClYcLIzgVqoGjTv+Aw5grTQSemuPa5Ryj1ff6iqh3Ouwmw6GhL9YCXATMLADsTz/4P6k+vh3y+F+74Br/8FhnrHjn0oMr37qA/1QsdmZEcbYrQfiQBXNieVRSB0l9Pgu2gFNLVmMuwC86G7UN/4PcKWYCdhyVlw5U3I1b9EvPhAZqCEcKzbx74CZ14Clon5/c+jDW7PxFASVAlf/DF4ffBvl4PqJDalP4x1yc1oy050ysUisP0daN+cM+Nx9vYKp3+9aTr950P1MOdI1DkLi36/ZiYzvUWVTWbKzN9jFLE2ZOIcIaCnHZ58ANauAct2xJHog5X/Cieci3ziQcST92bcmYDkMOnrfojrmJPAtpC/vgPxxqMZiyWRio35t3egz25FPnQn4p0/g+ZzapYeH/LMTyOWnQwNczK/t9QtzbuG7O89xJjmoiqDeBQ630Vu3wDbXkV0rIXkaGZcoAdkGlIR5KmfRnzsevAGkKv/B/HXXFENwTdXQ7jGEcTaZ+G//xl0/3hLNWsBDPXAj26A/nedQF1ojruzDKieC/Pfhz1vOfasRWjNc51BGocZM09U/Z3Qvgl2rId1T8HIbkdAQgHVk/lYke3kkPxVMOdoeP9FsOAYJykpJdz+d9DX7ghK2o4b/Pc/7nF329+Buz/niAonJSHffwXiwr9zao+JGNbLT6C98yT0bIVUFESm+4tQnSSrZYCqwKwVzufgFhyLOn/xYZFqmHmi2huyLml0GH77A9jw9J7eokYMedZnEB+9bo8rMtLwfy5zaplZoSkgz/4M4oOXOzFdQU3wPbIcoqLKzs6S+dRa13bk639BvPI7p1ameveEZZoLvvrf45tgbBvjnZfQ7/sH0MOO9ZES7AQEGuG8z8DSk8Ef2mMllSKpisOUQ0NU0nZqVpbpiCgWgc42WP8CbHkFhnc5wlA9jjWSprPUHQGfvR2q6vKPCJaF+fJqtEe/C1JxLJt0+kphJZwaYPNi5KITEfOOgpYj9ohM0TLW7PAU2aEhqr7d0LEZtrwO29+GgXecHJJeBWSSn6rLWXzV0LQI8+gz0U4428mIl0JKGO5HPv97xLZXYLgbjLiTEwPAAmPYCdY9DVC/ELngBOwFxzvx02EYpHPIiCoRc/I/5RAI7Z0FkTZEMzPOlIN2+Lb/HRqieo9pxXtVmPeYct4T1XtMOe+J6j2mnPdE9R5Tzn4J1A3DIJlMYpomlmVhmiZCCHRdR9d1vF4v2t6MEq6A7G8wDIN0Oo1hGOi6TnV1Ne4yh09JKUmlUiQSCVKpFOl0Gtu2UVUVXdfxeDz4fD50Xd+77w6WiWmaY78huwC4XC7cbvfY71AnSo8cQKZMVJZlEYlE6O7upqOjgx07dtDX18fo6CiRSARd16mrq6OhoYEFCxYwe/ZsGhsbCYVCU3YzpJREIhF6e3vZuXMn27Zupae3l66uLgYGBqivr+e8887jAx/4AMFgsKQQTNNkcHCQrq4utmzZwrZt2+jo6KCrq4tUKoXf76euro65c+eybNkyWlpamD17NtXV1bhcUzOHgm3bxGKxsWvZsmULO3fupKOjg10dHQhFobm5mdmzZzN//nyWLl1Ka2srjY2NeL3ektd2INhnUdm2zfDwMBs3buSZZ57h97//PW+99VZ+sXEoisJRRx3FJZdcwtlnn82iRYuoqqrapymfR0ZG2Lp1Ky+++CIPP/wwb7/99tgbnc/Pf/5zLr30UvQin8rt6enhrbfe4q9//Su//vWv6evryy9SQE1NDVdccQXnnHMOxx13HA0NDfv0UKPRKO+++y4vvPACv/vd73j11VdJJBL5xQo499xzueyyyzj++OOZN28eXu/B6ae1T6JKpVJs2bKFxx9/nPvuu4+Ojo78IpNy5JFHcsUVV3DhhReycOFCPOMGbE6OlJL29nb+8Ic/cMcdd7Br1678IgUcuWgRTz71FNXVe/qcm6bJ+vXr+eUvf8kPf/jDceXLpa6ujiuvvJLLLruMpUuX4vNVMg+WY+17enr461//yj333MOrr76aX6QszjrrLK677jrOPPNMampq9ull3Rv2WlSJRILnn3+eu+66izVr1uRvrpjzzjuPG264gZNPPrnsh2FZFuvXr+euu+7i8ccfZ2RkJL9IUVwuF+vWrWP27NkIIUilUqxZs4Zbb72VTZs25RevmCVLlvCNb3yDD3zgAwQC5TXVGIbBxo0buffnP+c3Dz/MwMBAfpGKqKqq4ktf+hIrV65kzpw5+z2GzUW97bbbvpG/cjISiQRPPvkk3/72t3n++efzN+8VbW1t7N69m1mzZtHS0lLUNeViWRYvvfQSX/va1/jzn/9MPF7+wILjjz+ea665Bq/Xi2EY/O53v+Pqq6+mv78/v+he0d/fz9q1a2lqamLu3LmTVgyyVvI73/kOv/zVr8pydZORTCZ55plnsCyLxYsXEw6HD5jFqlhUqVSK559/nm9961u8+eab+Zv3iZ07d9LX18eCBQtoaWmZ8Ca8/fbb3HjjjbzyyivY2e/9lcHixYu56aabWLZsGaqqsnr1aq655pqKjlEOAwMDbNy4kZaWFhYuXDhhZWTbtm18//vf5+GHH87ftM+8/vrraJrG8uXL8fv9+xTrlUtF7i/rbm655RaeeOKJ/M1juFwuGhoamDVrFoFAAFVVMU2TeDxOe3s7XV1dyJL9uOGqq67ipptuYuHChfmbAOjr6+Omm27isccem9BCtbS00NzcTDgcRtd1VFXlmmuu4fzzz8flcrFt2zYuuOACOjs7S/4eVVVZsGABjY2NuN1uVFVFSkkikaC7u5utW7fm7zKOE088kf/8/vc54cQT8zcBMDQ0xN13382dd95JLFZ6nGBDQwNz5syhqqpqzJWlUikGBwfZvn07o6MTN3b/8M47uWLlSvxluuN9oSJRDQwM8P3vf58777wzf9MYdXV1nHbaaWNL1pWlUil6e3t56qmn+POf/8yGDRvo7OzM3x2AQCDALbfcwrXXXlsQk5imyc9+9jPuuOMO2tvbx23LUldXx/LlyznvvPP4m7/5G1pbW/F6vbjd7rGcUiKR4IYbbmDVqlVYuR+hzKAoCq2traxYsYKLL76Y448/nqqqKlwuF7ZtMzAwwGuvvcavf/1rNm7cyI4dO/IPAZlrueLyy/nXf/1XwlXjp3E0DIPHH3+cf/u3f2P9+vXjtmWpqalhyZIlnHvuuZx11lkcccQRY7W64eFhNm/ezJ/+9CdefvllNm3aRDQazT8EAEsXLuAnP7+XY1es2P/xlW3bspwlnU7LJ598UjY0NEiPx1OwBINBuWzZMvmtb31LdnV1Feyfu+zcuVP++7//uzz66KMLjpNdPvrRj8qXX365YN9NmzbJc845p6B8dlm6dKn8+te/Lnfs2CFN0yzYP7s888wzsqampmB/j8cjfT6fPPPMM+XPfvYzGY1GC/bNXQYHB+WPfvQjefLJJxccJ7sc9773yUcefrhg37a2NvnZz362oHx2WbBggbzxxhvl22+/PeG12LYtX3jhBXndddfJpqamguNkl5tvvlkODAwU7DvVS9mi6uvrk/94440FPzS7LF26VP7iF7+Q6XS6YN9iy9DQkLz77rvl0qVLC47l8XhkTU2NvPvuu2U8Hh/bxzRN+d3vfle2trYWlPd4PHLJkiXyhz/8oRwaGio4X+6STCbl1VdfLQOBQMExvF6vPOmkk+TTTz9dsF+pJRqNyt8/9pg86aSTCo7n8XhkOByW1113nRwZGRnbxzRN+Zvf/Kbk9be2tsrbbrtNtre3F5yv1LJ9+3b5hS98QTY2NhYcz+PxyPnz58u33nprUoHu61I6Es7Btm06Ozt59NFH8zdBxt1cccUVrFy5smzTGg6Hueyyy1i5ciU1NYVzjsfjcTZu3EhPT8/YuqGhIV588cVx63K56qqr+OQnP0k4PPF8m7t372bNmjWYRTr2qarKV7/6VU4//fT8TSXx+XycdfbZfPnLX6a5uTl/M6lUira2tnHpipGREdatW8f27dvHlSUTk55//vlcddVVzJ49O39zSVpbW/n7v/97TjnxRNxFMvtdXV289tprJJOZkdX7ibJEZaTTtLW1sWv37vxNeDweTj/9dD772c+WLagsdXV1XHDBBZxYIojdsH49u3OSmRs2bCiZ4V62bBkXXnjhuIRmKd56662iggJ4//vfz8c+9rH81ZPi9/s57bTTuPDCC/M3AdDZ2Tmutrxr1y42b948rkyWI488kg9/+MMlKyoTsXjxYi65+CIaGhryNwGwZs2aCSsEU0FZokqmUiWTgo2NjVxwwQU0NjbmbyqLxYsXs2LFiqIJz82bN7Nr9+6xmtnWTRsZKJFLWrlyJa2trWVVmV988cWiohJC8JWvfGXSHFkp6uvr+eAHP1i0VaC/v5/NmzePnbenp4d33303vxgAp5xySskXrRw+eP4FNDU3F70XL7300oQ15qmgLFGl0+mSN6C+vp5TTz01f3XZBAIBFi1aRFNTU/4mBgYH6evrwzCcqRR37d5NpETWfOnSpfj95fUJf7uEpRJC7NPDdLlczJkzhwULFuRvIh6P093dPfZA+/r62LlzZ34xfD4fc+fOpbY2d9a+ymhsbGT+/PlFxd3T00M8Hi+ZQpkKyhZVqSqz1+ulpaUlf3VFtLS0FBUVmex9KpXCtm26enqJFnnLwuEw1dXVZblfy7IYiUSK3tRgMDhpPDYZgUCAI444In81ZNIh6bQzcUc0Gi3arFRXV0dzc/NeW0syceGSJUtKvmTRaHTKk725lCUqwzDYXSSeInMBkzVDTEYoFCrIR2UxTRPbtrEsi9HR0bGHkktdXV3Zv6GYmLLsy4PMoqpqyd4Btm0XtZC5qKo6Yfa9XNxud8kWiXQ6PeF92FeKnzUPVVWpykvcZclmyveFaDS6z8coF03TSvY3KmY5KsU0zX0KhEdHRxkeHt5nS9Lf31+y64/X6y0puKmgrCN7PB6WLl2avxoy7qm7uzt/dUV0dXXt8zEqYfbs2UVvqmVZdHV15a8uGyklAwMDrF27Nn9TAQG/v6irHR0dpaenZ58alVOpFFu3bi15jEAgUPSlmioK72wRXC4X8+fPz18NwODgIK+99lr+6rKJx+Ns27Ztnx5mpRx77LFFXYyUksceeyx/ddnEYjHWr19fVr+y5pYWFi3Kmwk5p49asSC+XLZu3Up7e3vRUGHx4sX4fL6DLyq3282SJUvyV0OmNvHHP/5xr7uNbNiwgVdeeWWfXEalnHTSSUWDeikl9913X8n4cSKklGzfvp1f/epX+ZuKMmfOHI466qj81QC88sorPPvss3sVEqRSKVatWlVS2BdccAHBEvHrVFGWqFwuFwsXLqSpSC4qHo/z9NNPc++991YsjGyWfl8s3d6wfPlyWltbi7rAdevWceedd5Z0HaXo7+/nwQcf5MUXX8zfVJTm5uaiqQcyGf+HHnqIl19+ueLY6g//+7889thjDA0N5W8C4MwzzsBbJCc4lRTe1SIoisKsWbP42EUX5W8CoLu7m5/85Cf89Kc/LTvY7erqYtWqVTzyyCMlb8D+oqqqiosuuqiotbJtm/vvv5/bb7+9rGuRUtLT08NPf/pTVq1alb+5JD6fjxUrVrB8+fL8TZDpB/Vf//VfvPDCCyUD7lwsy+Kxxx7jB3fdVdJKnXDCCSxesmTKBmeUouxOerquEwgE+Otf/lK0e8Xo6CibNm1iZGQEn89XcmRJPB7n9ddf57777uOBBx4o2vaVy5lnnsmJJ56Irus8+uijbNy4Mb8INTU1XHLJJSVzXcWYPXs2f/rTn4oKOpVKsW7dOnp6eqirq6OmpqYg3SClJBaL8dJLL3HHHXfw29/+tmRXnizZ5pds+qSmpoa+vj5eeOGF/KJYlsXu3bvZsmULtm1TX1+P3+8vsK6WZbF9+3buvfdefvzjH7P+nXeKxlIA//Iv/8JJJ51U9LlMJWWLSlVVQqEQ8Xi86E0gI6wNGzawceNG1q9fT/vOnfT399Pb28uWLVt49tlnefjhh1m1ahVPPPFEWcH5/hJVdXU1lmXx1FNPFXUxyWSStWvX0tbWxhtvvEF3dze9vb309vbS1tbGE088wf33388jjzzC6tWriUQi+YcoIF9U2fGP7777blHrYhgG7e3tbN68mXXr1rFt2zYikQj9/f20t7fzxhtv8MADD/DAAw/w8MMPs3379qJ9wwAuvPBCrr/+eurq6vZrkE6lnfQsy2Ljxo18/etfZ/Xq1fmbx+Fxu6lvaKCurg6v10s6nWZwcJCenp6KYq9bb72Vz3/+8/h8Pj7zmc/wyCOP5BdhwYIF3H///axYsSJ/04QMDAxwyy23cP/99xcVVhZVVZk7dy7V1dV4PB5M06S7u5tdu3ZNuF8+H/nIR7jrrrvGiT8ajfLoo49y++23F31hcqmpqWHOnDljmfJIJMKOHTuKeo5c3ve+9/Gd73yHk08+eb9bKSqxVGRiq1AoREtLC+3t7SV7XgKYeYNLOzs7GRoaGmvHK5f9ZanIxDVLlixhx44dbNu2LX/zGFJKhoeH6erqoqOjg927dzMyMlJxVjrfUpGpBLW0tKBpGm1tbQwPD4/bJ5dEIkFPTw8dHR10dHTQ29tb0tVlyfbJP+OMM4q2Be4PygrUc/F4PJxyyinceOONFfU5mq4sXLiQW2+9lYsvvjh/0wGjrq6Oyy67jM9+9rNFc1d7y+LFi/nyl7/MeeedV7QXyP6iYlGRecPPOOMMvv71r/PpT386f3PF+Hy+khetadpYe1gwGCxqvsPhcNGaXLksX76cW265hX/6p3/K31QxHo9nr7oBNTU1sXLlSv755ps55ZRT8jdXzIc//GG++c1vctFFF5VsV91fVOT+ctF1nZaWFpYtW8bSpUuxbZu2trb8YhPi8/k477zz+NKXvoQQoqDPVn19PZdeeinLly9HVVW6urp45513Cqr6H/nIRzjnnHMIhfb+w4319fUcddRRHHvssSiKUvBbJiMcDnPppZdy1VVXkUwmi7rTYu4vF7/fz7z581m+fDnNzc309/dXnFQ+7rjjuP7667n22ms5+eST93uTTDH2WlRkYqzq6mqWLl3KihUrOPnkk5k3bx6apjEyMlI0vxIOh1m+fDkXXXQR1157LStXruTUU09l/vz5DA0N0dHRgWEYNNTXc+2113LxxRePNWa3tLQwMjJCW1vbWLb5b/7mb/j85z/PkUceuU/WisxDXbp0Kccccwynnnoqs2bNwjCMku2SPp+PU089lUsuuYTPfe5zXHLJJcyfP5+XX36ZDRs25BefVFRkYqxZs2Zx9NFHc9xxx3HUUUcRDAYZGhoqWcFZtGgR5557Ltdccw3XXHMNH/rQh2htbS1IgxwoKqr9TUY6naa/v5++vj56e3uJRCJEo1EMw0BVVfx+P1VVVdTX11NfX09dXd1Y8JjtCLh+/XpGR0dpampi+fLlNDU1jcvN7Ny5k9dff52dO3cSDAY59thjOfroo0u6z73FNE16MzPGdHd3MzAwMBZEK4pCbW0t9fX1NDQ00JCp5WaD7dtuu61oLbVY7W8iLMsiGo3S3d1Nd3c3fX19DAwMjL2sfr+f6upqmpqaaGxspK6ujmAwWJDLOtBMqahykVJiWRaGYWDbNkIINE0bG3dXinQ6jWVZuFyuoo2+ZJKTyWRyrBvLvtzEdDpNJBLB7XYTDAbzN0PmWpLJ5FhNSwiB2+0u2odr8+bN3HzzzUVTLhdeeCE/+tGP9rpXp2EYpFKpsVyUrutj92mie3qg2funMQlZEXm9Xvx+Pz6fD5fLNenFu1wuvF5vSUGRaeAOh8NFM8yV8Nxzz3HJJZdw+eWXc8kll3D33XfnF4HMtXi9XsLhMOFwmFAoVFRQZHJfr7zySv5qFEXB5/OV7I1ZDtlWjezv8Pl8aJo26T090Oz9E5nhbNmyha9+9as8+eSTvPTSSzz//PPcfvvt/OxnP8svWjaRSIS33nyzaNNPTTjEonnzSorxUOKwFdWDDz7Ixo0bxyUwu7q6+N73vldyGNhESClpa2vjv++/P38TAM2zZ3Ps8cdNO6uyPzhsRdXe3l60iWXXrl188YtfzF89KV1dXdx7771FM/4Azc0trHjfcfmrD0kOW1GtWLGiaNxm2zZ/+ctf+PsvfWnSJpAsPT093HXXXTz00ENFm6Hq6+s56aST9iopOhM5bEX1iU98omRbWCKR4IEHHuCDH/wgTz75ZP7mMZLJJE888QTXX3899913X0FSNsvSpUv5+Mc/vs95tJnCfkspTHeklKxatYovfOELJS2SkpkBuL6+niuvvJJFixbhdrkYjUbZvHkzf/jDH2hvb6e/v7/kMebPn89XvvIVPvWpT70nqsOBRCLB1772Ne65556i8VWWbO8Mt9uNEALbtkmlUkSj0ZL9l8iMZ7zqyiv55re+NWEW/VDjsBYVmYnDrrvuOv70pz9V3JVlIjweDx/5yEe4/fbbqa+vz998SHPYxlRZqqqquOeee7jqqqvyN+01Ho+H8847j+985zvU1RX56ukhzmFvqbKMjo5yzz33cMstt+RvqoiWlhZuuOEGrrnmGkKh0GGRl8rnPVHlkEwm2bx5M//xH//Bb3/72/zNExIIBDj//PPHJsA9HDLnpXhPVHnYtk0ikeCdd97h0UcfZfXq1SUTmrqus3DhQj7+8Y9z/vnnc/TRR084McbhwnuiKkF2hhbTNOnr62PHjh1EIhEikQjBQID6hgaam5tpbGwc6516uIspy/8FInE1KXD6QMsAAAAASUVORK5CYII=;" vertex="1" parent="1">
          <mxGeometry x="450" y="420" width="59.94" height="70" as="geometry" />
        </mxCell>
        <mxCell id="W8asdlkaLdwOcrkHtq_W-8" value="" style="verticalLabelPosition=bottom;html=1;verticalAlign=top;align=center;strokeColor=none;fillColor=#00BEF2;shape=mxgraph.azure.github_code;pointerEvents=1;" vertex="1" parent="1">
          <mxGeometry x="150" y="420" width="70" height="70" as="geometry" />
        </mxCell>
        <mxCell id="W8asdlkaLdwOcrkHtq_W-9" style="edgeStyle=orthogonalEdgeStyle;rounded=0;orthogonalLoop=1;jettySize=auto;html=1;entryX=1;entryY=0.5;entryDx=0;entryDy=0;entryPerimeter=0;" edge="1" parent="1" source="W8asdlkaLdwOcrkHtq_W-7" target="W8asdlkaLdwOcrkHtq_W-8">
          <mxGeometry relative="1" as="geometry" />
        </mxCell>
        <mxCell id="W8asdlkaLdwOcrkHtq_W-10" value="&lt;b&gt;every 3min polling&lt;/b&gt;" style="text;html=1;align=center;verticalAlign=middle;resizable=0;points=[];autosize=1;strokeColor=none;fillColor=none;" vertex="1" parent="1">
          <mxGeometry x="250" y="420" width="130" height="30" as="geometry" />
        </mxCell>
        <mxCell id="W8asdlkaLdwOcrkHtq_W-11" value="&lt;b&gt;Jenkins&lt;/b&gt;" style="rounded=0;whiteSpace=wrap;html=1;" vertex="1" parent="1">
          <mxGeometry x="-80" y="425" width="120" height="60" as="geometry" />
        </mxCell>
        <mxCell id="W8asdlkaLdwOcrkHtq_W-12" style="edgeStyle=orthogonalEdgeStyle;rounded=0;orthogonalLoop=1;jettySize=auto;html=1;entryX=0;entryY=0.5;entryDx=0;entryDy=0;entryPerimeter=0;" edge="1" parent="1" source="W8asdlkaLdwOcrkHtq_W-11" target="W8asdlkaLdwOcrkHtq_W-8">
          <mxGeometry relative="1" as="geometry" />
        </mxCell>
        <mxCell id="W8asdlkaLdwOcrkHtq_W-13" value="&lt;b&gt;Raise PR to git&lt;/b&gt;" style="text;html=1;align=center;verticalAlign=middle;resizable=0;points=[];autosize=1;strokeColor=none;fillColor=none;" vertex="1" parent="1">
          <mxGeometry x="40" y="460" width="110" height="30" as="geometry" />
        </mxCell>
        <mxCell id="W8asdlkaLdwOcrkHtq_W-14" style="edgeStyle=orthogonalEdgeStyle;rounded=0;orthogonalLoop=1;jettySize=auto;html=1;entryX=0;entryY=0.706;entryDx=0;entryDy=0;entryPerimeter=0;" edge="1" parent="1" source="W8asdlkaLdwOcrkHtq_W-8" target="W8asdlkaLdwOcrkHtq_W-6">
          <mxGeometry relative="1" as="geometry" />
        </mxCell>
        <mxCell id="W8asdlkaLdwOcrkHtq_W-15" value="&lt;b&gt;webhooks&lt;/b&gt;" style="text;html=1;align=center;verticalAlign=middle;resizable=0;points=[];autosize=1;strokeColor=none;fillColor=none;" vertex="1" parent="1">
          <mxGeometry x="320" y="500" width="80" height="30" as="geometry" />
        </mxCell>
        <mxCell id="W8asdlkaLdwOcrkHtq_W-16" value="&lt;b&gt;Applications&lt;/b&gt;" style="text;html=1;align=center;verticalAlign=middle;resizable=0;points=[];autosize=1;strokeColor=none;fillColor=none;" vertex="1" parent="1">
          <mxGeometry x="130" y="500" width="100" height="30" as="geometry" />
        </mxCell>
        <mxCell id="W8asdlkaLdwOcrkHtq_W-17" value="" style="verticalLabelPosition=bottom;html=1;verticalAlign=top;align=center;strokeColor=none;fillColor=#00BEF2;shape=mxgraph.azure.github_code;pointerEvents=1;" vertex="1" parent="1">
          <mxGeometry x="145" y="285" width="70" height="70" as="geometry" />
        </mxCell>
        <mxCell id="W8asdlkaLdwOcrkHtq_W-18" style="edgeStyle=orthogonalEdgeStyle;rounded=0;orthogonalLoop=1;jettySize=auto;html=1;entryX=1;entryY=0.5;entryDx=0;entryDy=0;entryPerimeter=0;" edge="1" parent="1" source="W8asdlkaLdwOcrkHtq_W-7" target="W8asdlkaLdwOcrkHtq_W-17">
          <mxGeometry relative="1" as="geometry">
            <Array as="points">
              <mxPoint x="470" y="320" />
            </Array>
          </mxGeometry>
        </mxCell>
        <mxCell id="W8asdlkaLdwOcrkHtq_W-19" value="&lt;b&gt;cluster configs&lt;/b&gt;" style="text;html=1;align=center;verticalAlign=middle;resizable=0;points=[];autosize=1;strokeColor=none;fillColor=none;" vertex="1" parent="1">
          <mxGeometry x="250" y="325" width="110" height="30" as="geometry" />
        </mxCell>
        <mxCell id="W8asdlkaLdwOcrkHtq_W-20" value="&lt;b&gt;Source&lt;/b&gt;" style="text;html=1;align=center;verticalAlign=middle;resizable=0;points=[];autosize=1;strokeColor=none;fillColor=none;" vertex="1" parent="1">
          <mxGeometry x="145" y="355" width="60" height="30" as="geometry" />
        </mxCell>
        <mxCell id="W8asdlkaLdwOcrkHtq_W-21" value="&lt;b&gt;Source&lt;/b&gt;" style="text;html=1;align=center;verticalAlign=middle;resizable=0;points=[];autosize=1;strokeColor=none;fillColor=none;" vertex="1" parent="1">
          <mxGeometry x="150" y="530" width="60" height="30" as="geometry" />
        </mxCell>
        <mxCell id="W8asdlkaLdwOcrkHtq_W-22" value="&lt;b&gt;EKS Cluster&lt;/b&gt;" style="text;html=1;align=center;verticalAlign=middle;resizable=0;points=[];autosize=1;strokeColor=none;fillColor=none;" vertex="1" parent="1">
          <mxGeometry x="555" y="370" width="90" height="30" as="geometry" />
        </mxCell>
        <mxCell id="W8asdlkaLdwOcrkHtq_W-23" value="&lt;b&gt;QA&lt;/b&gt;" style="rounded=1;whiteSpace=wrap;html=1;fillColor=#d5e8d4;gradientColor=#97d077;strokeColor=#82b366;" vertex="1" parent="1">
          <mxGeometry x="300" y="570" width="150" height="170" as="geometry" />
        </mxCell>
        <mxCell id="W8asdlkaLdwOcrkHtq_W-24" value="&lt;b&gt;PROD&lt;/b&gt;" style="rounded=1;whiteSpace=wrap;html=1;fillColor=#d5e8d4;gradientColor=#97d077;strokeColor=#82b366;" vertex="1" parent="1">
          <mxGeometry x="495" y="570" width="150" height="170" as="geometry" />
        </mxCell>
        <mxCell id="W8asdlkaLdwOcrkHtq_W-26" style="edgeStyle=orthogonalEdgeStyle;rounded=0;orthogonalLoop=1;jettySize=auto;html=1;entryX=0.553;entryY=-0.006;entryDx=0;entryDy=0;entryPerimeter=0;" edge="1" parent="1" source="W8asdlkaLdwOcrkHtq_W-7" target="W8asdlkaLdwOcrkHtq_W-24">
          <mxGeometry relative="1" as="geometry" />
        </mxCell>
        <mxCell id="W8asdlkaLdwOcrkHtq_W-31" style="edgeStyle=orthogonalEdgeStyle;rounded=0;orthogonalLoop=1;jettySize=auto;html=1;entryX=0;entryY=0.5;entryDx=0;entryDy=0;" edge="1" parent="1" source="W8asdlkaLdwOcrkHtq_W-27" target="W8asdlkaLdwOcrkHtq_W-28">
          <mxGeometry relative="1" as="geometry" />
        </mxCell>
        <mxCell id="W8asdlkaLdwOcrkHtq_W-32" style="edgeStyle=orthogonalEdgeStyle;rounded=0;orthogonalLoop=1;jettySize=auto;html=1;entryX=0;entryY=0.5;entryDx=0;entryDy=0;" edge="1" parent="1" source="W8asdlkaLdwOcrkHtq_W-27" target="W8asdlkaLdwOcrkHtq_W-29">
          <mxGeometry relative="1" as="geometry" />
        </mxCell>
        <mxCell id="W8asdlkaLdwOcrkHtq_W-33" style="edgeStyle=orthogonalEdgeStyle;rounded=0;orthogonalLoop=1;jettySize=auto;html=1;entryX=0;entryY=0.5;entryDx=0;entryDy=0;" edge="1" parent="1" source="W8asdlkaLdwOcrkHtq_W-27" target="W8asdlkaLdwOcrkHtq_W-30">
          <mxGeometry relative="1" as="geometry" />
        </mxCell>
        <mxCell id="W8asdlkaLdwOcrkHtq_W-27" value="&lt;b&gt;Root App&lt;br&gt;app-of-apps&lt;/b&gt;" style="rounded=0;whiteSpace=wrap;html=1;" vertex="1" parent="1">
          <mxGeometry x="230" y="910" width="120" height="60" as="geometry" />
        </mxCell>
        <mxCell id="W8asdlkaLdwOcrkHtq_W-28" value="&lt;b&gt;namespaces&lt;/b&gt;" style="rounded=1;whiteSpace=wrap;html=1;" vertex="1" parent="1">
          <mxGeometry x="410" y="800" width="120" height="60" as="geometry" />
        </mxCell>
        <mxCell id="W8asdlkaLdwOcrkHtq_W-29" value="&lt;b&gt;network policies&lt;/b&gt;" style="rounded=1;whiteSpace=wrap;html=1;" vertex="1" parent="1">
          <mxGeometry x="410" y="910" width="120" height="60" as="geometry" />
        </mxCell>
        <mxCell id="W8asdlkaLdwOcrkHtq_W-30" value="&lt;b&gt;drivers&lt;/b&gt;" style="rounded=1;whiteSpace=wrap;html=1;" vertex="1" parent="1">
          <mxGeometry x="410" y="1020" width="120" height="60" as="geometry" />
        </mxCell>
        <mxCell id="W8asdlkaLdwOcrkHtq_W-34" value="&lt;b&gt;applications/*&lt;/b&gt;" style="text;html=1;align=center;verticalAlign=middle;resizable=0;points=[];autosize=1;strokeColor=none;fillColor=none;" vertex="1" parent="1">
          <mxGeometry x="420" y="770" width="100" height="30" as="geometry" />
        </mxCell>
        <mxCell id="W8asdlkaLdwOcrkHtq_W-35" value="" style="whiteSpace=wrap;html=1;shape=mxgraph.basic.document" vertex="1" parent="1">
          <mxGeometry x="565" y="800" width="80" height="20" as="geometry" />
        </mxCell>
        <mxCell id="W8asdlkaLdwOcrkHtq_W-36" value="" style="whiteSpace=wrap;html=1;shape=mxgraph.basic.document" vertex="1" parent="1">
          <mxGeometry x="565" y="840" width="80" height="20" as="geometry" />
        </mxCell>
        <mxCell id="W8asdlkaLdwOcrkHtq_W-37" style="edgeStyle=orthogonalEdgeStyle;rounded=0;orthogonalLoop=1;jettySize=auto;html=1;entryX=0;entryY=0.5;entryDx=0;entryDy=0;entryPerimeter=0;" edge="1" parent="1" source="W8asdlkaLdwOcrkHtq_W-28" target="W8asdlkaLdwOcrkHtq_W-35">
          <mxGeometry relative="1" as="geometry" />
        </mxCell>
        <mxCell id="W8asdlkaLdwOcrkHtq_W-38" style="edgeStyle=orthogonalEdgeStyle;rounded=0;orthogonalLoop=1;jettySize=auto;html=1;entryX=0;entryY=0.5;entryDx=0;entryDy=0;entryPerimeter=0;" edge="1" parent="1" source="W8asdlkaLdwOcrkHtq_W-28" target="W8asdlkaLdwOcrkHtq_W-36">
          <mxGeometry relative="1" as="geometry" />
        </mxCell>
      </root>
    </mxGraphModel>
  </diagram>
</mxfile>
